<svg id="jackbit_logo" data-name="jackbit logo" xmlns="http://www.w3.org/2000/svg" xmlns:xlink="http://www.w3.org/1999/xlink" width="135.538" height="20" viewBox="0 0 135.538 20">
  <defs>
    <clipPath id="clip-path">
      <rect id="Rectangle_6080" data-name="Rectangle 6080" width="135.538" height="20" fill="none"/>
    </clipPath>
    <linearGradient id="linear-gradient" x1="0.5" x2="0.5" y2="1" gradientUnits="objectBoundingBox">
      <stop offset="0" stop-color="#00ec66"/>
      <stop offset="0.192" stop-color="#00e864"/>
      <stop offset="1" stop-color="#007633"/>
    </linearGradient>
  </defs>
  <g id="Group_8356" data-name="Group 8356" clip-path="url(#clip-path)">
    <path id="Path_10212" data-name="Path 10212" d="M127.141,6.992a4.868,4.868,0,0,0-4.4-6.955H115.3a5.508,5.508,0,0,0-5.5,5.5V18.173a1.837,1.837,0,0,0,1.834,1.834h12.521a5.5,5.5,0,0,0,5.5-5.505l0-2.9a5.509,5.509,0,0,0-2.511-4.614M125.45,15.8a1.823,1.823,0,0,1-1.3.538H113.465V5.539A1.836,1.836,0,0,1,115.3,3.7h7.444a1.2,1.2,0,0,1,.062,2.4h-4.881a1.834,1.834,0,0,0,0,3.668h4.742c.064,0,.129,0,.18,0h1.3a1.837,1.837,0,0,1,1.834,1.833l0,2.9a1.818,1.818,0,0,1-.536,1.3" transform="translate(-20.302 -0.007)" fill="#ccd6f6"/>
    <path id="Path_10213" data-name="Path 10213" d="M137.6.175a1.836,1.836,0,0,0-1.834,1.834V18.2a1.834,1.834,0,1,0,3.668,0V2.009A1.836,1.836,0,0,0,137.6.175" transform="translate(-25.104 -0.032)" fill="#ccd6f6"/>
    <path id="Path_10214" data-name="Path 10214" d="M159.946.175H143.757a1.834,1.834,0,1,0,0,3.668h6.26V18.2a1.834,1.834,0,0,0,3.668,0V3.843h6.262a1.834,1.834,0,0,0,0-3.668" transform="translate(-26.242 -0.032)" fill="#ccd6f6"/>
    <path id="Path_10215" data-name="Path 10215" d="M18.023,0a1.836,1.836,0,0,0-1.834,1.834V14.5a1.836,1.836,0,0,1-1.834,1.834H5.5A1.836,1.836,0,0,1,3.668,14.5v-.667a1.834,1.834,0,1,0-3.668,0V14.5A5.508,5.508,0,0,0,5.5,20h8.854a5.508,5.508,0,0,0,5.5-5.5V1.834A1.836,1.836,0,0,0,18.023,0" transform="translate(0 0)" fill="url(#linear-gradient)"/>
    <path id="Path_10216" data-name="Path 10216" d="M69.855,16.339H57.334A1.836,1.836,0,0,1,55.5,14.5V5.539A1.836,1.836,0,0,1,57.334,3.7h9.184a1.834,1.834,0,0,0,0-3.668H57.334a5.508,5.508,0,0,0-5.5,5.5V14.5a5.508,5.508,0,0,0,5.5,5.5H69.855a1.834,1.834,0,0,0,0-3.668" transform="translate(-9.584 -0.007)" fill="url(#linear-gradient)"/>
    <path id="Path_10217" data-name="Path 10217" d="M88.436,6.733l7.49-3.023A1.833,1.833,0,0,0,95.954.32a1.816,1.816,0,0,0-1.4-.011L84.989,4.173a1.594,1.594,0,0,0-.363.143L81.39,5.622V2.009a1.834,1.834,0,0,0-3.668,0V18.2a1.834,1.834,0,1,0,3.668,0V9.577l3.5-1.411,8.92,11.177a1.834,1.834,0,1,0,2.867-2.288Z" transform="translate(-14.371 -0.032)" fill="url(#linear-gradient)"/>
    <path id="Path_10218" data-name="Path 10218" d="M39.871.137H31.777a1.834,1.834,0,0,0,0,3.668h8.094c1.351,0,2.214.712,2.214,1.2v1.2H31.4a5.508,5.508,0,0,0-5.5,5.5v2.783A5.508,5.508,0,0,0,31.4,20H43.7a2.051,2.051,0,0,0,2.049-2.049V5.006c0-2.731-2.584-4.869-5.882-4.869m2.214,16.19H31.4a1.836,1.836,0,0,1-1.834-1.834V11.711A1.836,1.836,0,0,1,31.4,9.877H42.084Z" transform="translate(-4.788 -0.025)" fill="url(#linear-gradient)"/>
  </g>
</svg>
