<svg xmlns="http://www.w3.org/2000/svg" id="Layer_1" viewBox="0 0 300 80"><defs><style>      .st0 {        fill: #3468da;      }      .st1 {        fill: #fff;      }    </style></defs><g><path class="st1" d="M91,40.4c0-6.8,5.2-12.2,12.6-12.2s6.2,1.1,8.3,3l-3.2,3.5c-1.6-1.4-3.3-1.8-4.9-1.8-4.3,0-7.5,3.4-7.5,7.6s3.1,7.7,7.3,7.7,4.2-.8,5.7-2.5l3.2,3.6c-2.3,2.2-5.4,3.5-9,3.5-7.3,0-12.6-5.5-12.6-12.3Z"></path><path class="st1" d="M114.9,34h4.9v3.5c.5-1.5,2.4-3.9,6.4-3.9v5.4c-4.3,0-6.4,1.9-6.4,6.3v7.1h-4.9v-18.4Z"></path><path class="st1" d="M130.8,53.3c2.3,0,3.1-.8,3.8-2.2l.4-.8-7.7-16.3h5l3.7,8.6c.6,1.3,1.2,3.1,1.2,3.1,0,0,.8-2.2,1.2-3.2l3.3-8.5h4.9l-8.2,18.9c-2,4.5-5.4,4.9-7.7,4.9v-4.5Z"></path><path class="st1" d="M148.8,34h4.7v2.2c1.5-1.8,3.7-2.6,5.9-2.6,5.1,0,8.3,4.3,8.3,9.5s-3.3,9.6-8.4,9.6-4.2-.8-5.5-2.5v7.4h-4.9v-23.7ZM162.6,43.2c0-2.9-1.9-5-4.6-5s-4.4,2.1-4.4,5,1.8,5,4.4,5,4.6-2.1,4.6-5Z"></path><path class="st1" d="M172.1,46.5v-8.5h-2.7v-4h2.7v-3.5l4.9-1.1v4.6h5.1v4h-5.1v8.4c0,1.6.8,2.1,1.7,2.1s2.2-.7,2.4-.8l1.4,3.6c-1.1.7-2.7,1.4-4.7,1.4-3.7,0-5.7-2.1-5.7-6.3Z"></path><path class="st1" d="M184.2,43.2c0-5.3,4.3-9.6,9.8-9.6s9.8,4.2,9.8,9.6-4.3,9.6-9.8,9.6-9.8-4.2-9.8-9.6ZM198.8,43.2c0-2.9-2.1-5-4.8-5s-4.8,2.1-4.8,5,2.1,5,4.8,5,4.8-2.1,4.8-5Z"></path><path class="st1" d="M207.5,28.6h10.2c7,0,10.7,4.1,10.7,9.2s-1.6,6-4.5,7.6l5,7h-5.9l-3.7-5.6c-.7.1-1.3.2-2,.2h-4.6v5.4h-5.1v-23.8ZM217.8,42.6c3,0,5.1-2.2,5.1-4.8s-2.1-4.9-5.1-4.9h-5.3v9.6h5.2Z"></path><path class="st1" d="M230.5,43.2c0-5.3,4.3-9.6,9.8-9.6s9.8,4.2,9.8,9.6-4.3,9.6-9.8,9.6-9.8-4.2-9.8-9.6ZM245.1,43.2c0-2.9-2.1-5-4.8-5s-4.8,2.1-4.8,5,2.1,5,4.8,5,4.8-2.1,4.8-5Z"></path><path class="st1" d="M254.7,53.3c2.3,0,3.1-.8,3.8-2.2l.4-.8-7.7-16.3h5l3.7,8.6c.6,1.3,1.2,3.1,1.2,3.1,0,0,.8-2.2,1.2-3.2l3.3-8.5h4.9l-8.2,18.9c-2,4.5-5.4,4.9-7.7,4.9v-4.5Z"></path><path class="st1" d="M271.6,43.2c0-5.3,3.2-9.6,8.3-9.6s4.4.8,5.7,2.6v-2.2h4.8v18.4h-4.8v-2.2c-1.3,1.8-3.6,2.6-5.7,2.6-5.1,0-8.3-4.3-8.3-9.6ZM285.5,43.2c0-2.9-1.8-5-4.4-5s-4.6,2.1-4.6,5,1.9,5,4.6,5,4.4-2.1,4.4-5Z"></path><path class="st1" d="M294.2,28.2h4.9v24.2h-4.9v-24.2Z"></path></g><g><g><path class="st0" d="M34.4,64.1s-1.4,3.7-2.2,6.9c-.3-.5-.7-.9-1.2-1.4-7.9-7.3-14.9-8.5-14.9-8.5.6-1.2,2.3-4.6,2.3-4.6C14.5,51.4.9,47.9.9,47.9c2.3-2.5,5.6-4.8,8.4-6.5.7-.4,1.3-.8,1.9-1.2,5,3.5,19.9,14.5,23.2,23.9Z"></path><path class="st0" d="M53.3,56.6s1.6,3.4,2.3,4.6c0,0-6.7,1.3-14.9,8.6-1.2,1.1-6.1,6.2-6.3,6.4,0,0,2.8-23.6,26.2-35.9h0c2.9,1.7,7.3,4.5,10.1,7.6,0,0-13.6,3.5-17.5,8.7Z"></path></g><g><path class="st0" d="M51.5,18.8l-1.8-9.3c0-3.1-6.3-5.7-14-5.7s-14,2.5-14,5.7l-1.8,9.3c4.3,1.4,9.8,2.2,15.8,2.2s11.5-.8,15.8-2.3h0Z"></path><path class="st0" d="M66.5,27.8c0,4.6-13.7,8.4-30.6,8.4s-30.6-3.8-30.6-8.4,5.7-5.6,14.2-7.1l-.6,2.7c4.5,1.4,10.6,2.3,17,2.3s12.5-.8,17-2.2l-.6-2.8c8.5,1.5,14.2,4.1,14.2,7.1Z"></path></g></g></svg>